<?xml version="1.0" encoding="UTF-8" standalone="no"?><svg xmlns="http://www.w3.org/2000/svg" xmlns:xlink="http://www.w3.org/1999/xlink" contentScriptType="text/ecmascript" zoomAndPan="magnify" text-rendering="geometricPrecision" contentStyleType="text/css" version="1" width="17" clip-rule="evenodd" fill="#000000" preserveAspectRatio="xMidYMid meet" viewBox="-0.0 0.0 17.0 17.0" height="17" fill-rule="evenodd" image-rendering="optimizeQuality"><defs><linearGradient x1="5.21" y1="19.39" x2="10.33" gradientUnits="userSpaceOnUse" y2="-0.42" xlink:type="simple" xlink:actuate="onLoad" id="a" xlink:show="other"><stop stop-color="#222291" offset="0"/><stop stop-color="#893491" offset="0.522"/><stop stop-color="#de3893" offset="1"/></linearGradient></defs><g><path fill="url(#a)" d="M12.49 10.03l2.21 1.3c0.24,0.14 0.32,0.44 0.18,0.68l0 0 0 0c-0.72,1.21 -1.73,2.21 -2.93,2.91 -1.17,0.67 -2.53,1.05 -3.97,1.05 -0.1,0 -0.23,0 -0.38,-0.01l-0.02 0c-0.15,0.31 -0.39,0.56 -0.68,0.73l0 0c-0.38,0.22 -0.84,0.29 -1.29,0.17 -0.46,-0.12 -0.82,-0.42 -1.04,-0.79 -0.22,-0.38 -0.29,-0.84 -0.17,-1.3 0.12,-0.45 0.42,-0.82 0.79,-1.03 0.38,-0.22 0.85,-0.3 1.3,-0.18 0.45,0.13 0.82,0.42 1.04,0.8 0.1,0.18 0.17,0.39 0.21,0.6 0.07,0 0.15,0.01 0.24,0.01 1.26,0 2.45,-0.34 3.47,-0.92 0.91,-0.53 1.7,-1.25 2.3,-2.12l-1.76 -1.03c-0.15,0.21 -0.32,0.4 -0.5,0.59 -0.9,0.89 -2.14,1.45 -3.51,1.45 -1.36,0 -2.6,-0.56 -3.5,-1.45 -0.19,-0.2 -0.38,-0.42 -0.54,-0.65l-2.23 1.25c-0.24,0.14 -0.55,0.05 -0.68,-0.19l0 0 -0.01 0c-0.33,-0.61 -0.59,-1.25 -0.76,-1.91 -0.17,-0.65 -0.26,-1.32 -0.26,-2.01 0,-0.84 0.13,-1.65 0.37,-2.41 0.22,-0.69 0.53,-1.33 0.91,-1.92 -0.2,-0.29 -0.29,-0.62 -0.29,-0.96 0,-0.43 0.16,-0.87 0.5,-1.2 0.33,-0.34 0.77,-0.5 1.2,-0.5 0.44,0 0.88,0.16 1.21,0.5 0.33,0.33 0.5,0.77 0.5,1.2 0,0.44 -0.17,0.88 -0.5,1.21 -0.33,0.33 -0.77,0.5 -1.21,0.5l0 0c-0.21,0 -0.42,-0.04 -0.62,-0.12 -0.31,0.49 -0.56,1.03 -0.74,1.59 -0.21,0.67 -0.33,1.38 -0.33,2.11 0,0.61 0.08,1.2 0.23,1.76 0.11,0.42 0.26,0.83 0.44,1.22l1.78 -0.99c-0.27,-0.61 -0.42,-1.28 -0.42,-1.99 0,-1.36 0.56,-2.6 1.45,-3.5 0.79,-0.78 1.84,-1.3 3,-1.42l0 -2.56c0,-0.28 0.23,-0.5 0.5,-0.5 1.58,0 3.06,0.46 4.3,1.26 1.19,0.76 2.17,1.82 2.81,3.09 0.35,-0.03 0.69,0.05 0.97,0.22l0.01 0 0 0c0.37,0.22 0.67,0.58 0.79,1.04 0.12,0.45 0.05,0.91 -0.17,1.29l0 0 0 0c-0.22,0.38 -0.58,0.68 -1.04,0.8 -0.45,0.12 -0.91,0.04 -1.29,-0.17l0 -0.01 0 0.01c-0.38,-0.22 -0.67,-0.59 -0.8,-1.04 -0.12,-0.45 -0.04,-0.91 0.18,-1.29l0 0 0 -0.01c0.1,-0.18 0.24,-0.35 0.41,-0.48 -0.56,-1.06 -1.4,-1.96 -2.41,-2.61 -0.95,-0.61 -2.06,-0.99 -3.25,-1.08l0 2.04c1.16,0.12 2.21,0.64 3,1.42 0.89,0.9 1.45,2.14 1.45,3.5 0,0.74 -0.16,1.43 -0.45,2.05zm-1.71 -4.84c-0.72,-0.71 -1.71,-1.15 -2.8,-1.15 -1.08,0 -2.07,0.44 -2.79,1.15 -0.71,0.72 -1.15,1.71 -1.15,2.79 0,1.09 0.44,2.08 1.15,2.8 0.72,0.71 1.71,1.15 2.79,1.15 1.09,0 2.08,-0.44 2.8,-1.15 0.71,-0.72 1.15,-1.71 1.15,-2.8 0,-1.08 -0.44,-2.07 -1.15,-2.79zm-2.8 0.77c0.56,0 1.07,0.23 1.43,0.6 0.37,0.36 0.6,0.87 0.6,1.42 0,0.56 -0.23,1.07 -0.6,1.43 -0.36,0.37 -0.87,0.6 -1.43,0.6 -0.55,0 -1.06,-0.23 -1.42,-0.6 -0.37,-0.36 -0.6,-0.87 -0.6,-1.43 0,-0.55 0.23,-1.06 0.6,-1.42 0.36,-0.37 0.87,-0.6 1.42,-0.6zm0.72 1.31c-0.18,-0.19 -0.43,-0.3 -0.72,-0.3 -0.28,0 -0.53,0.11 -0.71,0.3 -0.19,0.18 -0.3,0.43 -0.3,0.71 0,0.29 0.11,0.54 0.3,0.72 0.18,0.19 0.43,0.3 0.71,0.3 0.29,0 0.54,-0.11 0.72,-0.3 0.19,-0.18 0.3,-0.43 0.3,-0.72 0,-0.28 -0.11,-0.53 -0.3,-0.71zm-6.01 -5.28c-0.18,0 -0.36,0.07 -0.49,0.21 -0.14,0.13 -0.21,0.31 -0.21,0.49 0,0.18 0.07,0.36 0.21,0.5 0.13,0.14 0.31,0.21 0.49,0.21l0 0c0.18,0 0.36,-0.07 0.5,-0.21 0.14,-0.14 0.21,-0.32 0.21,-0.5 0,-0.18 -0.07,-0.36 -0.21,-0.49 -0.14,-0.14 -0.32,-0.21 -0.5,-0.21zm2.75 13.57c0.09,0.16 0.24,0.28 0.43,0.33 0.18,0.05 0.37,0.02 0.53,-0.07l0 0 0 0c0.16,-0.09 0.28,-0.24 0.33,-0.42 0.05,-0.19 0.02,-0.38 -0.07,-0.54 -0.09,-0.15 -0.24,-0.28 -0.43,-0.33 -0.19,-0.05 -0.38,-0.02 -0.53,0.07 -0.16,0.09 -0.28,0.24 -0.33,0.43 -0.05,0.19 -0.02,0.38 0.07,0.53zm10.38 -9.16c0.09,-0.16 0.12,-0.35 0.07,-0.53 -0.05,-0.19 -0.17,-0.34 -0.33,-0.43l0 0c-0.15,-0.09 -0.34,-0.12 -0.53,-0.07 -0.19,0.05 -0.34,0.17 -0.43,0.33l0 0c-0.09,0.15 -0.12,0.34 -0.07,0.53 0.05,0.19 0.18,0.34 0.33,0.43l0 0c0.16,0.09 0.35,0.12 0.54,0.07 0.18,-0.05 0.33,-0.17 0.42,-0.33l0 0z" fill-rule="nonzero"/></g></svg>