<?xml version="1.0" encoding="UTF-8" standalone="no"?><svg xmlns="http://www.w3.org/2000/svg" xmlns:xlink="http://www.w3.org/1999/xlink" contentScriptType="text/ecmascript" fill="#000000" width="951.8" zoomAndPan="magnify" contentStyleType="text/css" viewBox="0.0 -0.2 951.8 463.5" height="463.5" preserveAspectRatio="xMidYMid meet" version="1"><g id="change1_1"><path fill="#ffffff" d="M695.2,231.7c0,0.6,0,1.2,0,1.7c0,7.3-0.4,14.5-1.2,21.7c-0.3,3.4-0.8,6.7-1.2,10.1c-0.9,6.5-2.1,12.9-3.6,19.2 c-0.7,3-1.5,6-2.3,9c-1.6,5.9-3.5,11.6-5.5,17.3c-1,2.8-2,5.5-3.1,8.2c-2.2,5.3-4.5,10.6-7.1,15.7c-1.2,2.5-2.5,5-3.9,7.4 c-2.7,4.9-5.5,9.7-8.5,14.4c-1.5,2.3-3,4.6-4.5,6.8c-3.1,4.5-6.3,8.8-9.7,13.1c-1.7,2.1-3.4,4.2-5.1,6.2c-3.9,4.5-7.9,8.9-12.1,13 c-1.9,1.9-3.8,3.7-5.8,5.6c-3.9,3.7-8,7.2-12.2,10.6c-2.1,1.7-4.2,3.3-6.3,5c-4.4,3.3-8.8,6.4-13.4,9.4c-2.3,1.5-4.6,3-7,4.4 c-4.8,2.9-9.7,5.6-14.7,8.1c-2.5,1.3-5.1,2.5-7.6,3.7c-5.3,2.4-10.6,4.7-16.1,6.7c-2.8,1-5.5,2-8.4,2.9c-5.8,1.9-11.8,3.6-17.8,5 c-3.1,0.7-6.2,1.4-9.3,2c-6.5,1.3-13.1,2.3-19.8,3c-3.4,0.4-6.9,0.7-10.4,0.9c-5,0.3-10,0.5-15.1,0.5c-5.1,0-10.1-0.2-15.1-0.5 c-3.5-0.2-7-0.5-10.4-0.9c-6.7-0.7-13.3-1.7-19.8-3c-3.1-0.6-6.2-1.3-9.3-2c-6-1.5-12-3.1-17.8-5c-2.8-0.9-5.6-1.9-8.4-2.9 c-5.5-2-10.9-4.3-16.1-6.7c-2.6-1.2-5.1-2.4-7.6-3.7c-5-2.5-9.9-5.2-14.7-8.1c-2.3-1.4-4.7-2.9-7-4.4c-4.6-3-9.1-6.1-13.4-9.4 c-2.1-1.6-4.3-3.3-6.3-5c-4.2-3.4-8.3-6.9-12.2-10.6c-2-1.8-3.9-3.7-5.8-5.6c-4-4-7.9-8.2-11.6-12.5c-1.8-2-3.5-4.1-5.1-6.2 c-3.4-4.2-6.7-8.6-9.8-13.1c-1.5-2.2-3.1-4.5-4.5-6.8c-3-4.7-5.8-9.4-8.5-14.3c-1.3-2.5-2.6-4.9-3.9-7.4c-2.6-5.1-5-10.4-7.1-15.7 c-1.1-2.7-2.2-5.4-3.2-8.1c-2.1-5.7-3.9-11.4-5.6-17.3c-0.8-3-1.6-6-2.3-9c-1.5-6.3-2.7-12.7-3.7-19.2c-0.5-3.3-0.9-6.7-1.3-10 c-0.8-7.1-1.2-14.3-1.3-21.6c0-0.9,0-1.8,0-2.7s0-1.8,0-2.7c0.1-7.3,0.5-14.5,1.3-21.6c0.3-3.4,0.8-6.7,1.3-10 c1-6.5,2.2-12.9,3.7-19.2c0.7-3,1.5-6,2.3-9c1.6-5.9,3.5-11.6,5.6-17.3c1-2.7,2.1-5.5,3.2-8.1c2.2-5.3,4.6-10.6,7.1-15.7 c1.3-2.5,2.5-5,3.9-7.4c2.7-4.9,5.5-9.6,8.5-14.3c1.5-2.3,3-4.5,4.5-6.8c3.1-4.5,6.4-8.8,9.8-13.1c1.7-2.1,3.4-4.1,5.1-6.2 c3.7-4.3,7.6-8.5,11.6-12.5c1.9-1.9,3.8-3.7,5.8-5.6c3.9-3.7,8-7.2,12.2-10.6c2.1-1.7,4.2-3.4,6.3-5c4.4-3.3,8.8-6.4,13.4-9.4 c2.3-1.5,4.6-3,7-4.4c4.8-2.9,9.7-5.6,14.7-8.1c2.5-1.3,5.1-2.5,7.6-3.7c5.3-2.4,10.6-4.7,16.1-6.7c2.8-1,5.6-2,8.4-2.9 c5.8-1.9,11.8-3.6,17.8-5.1c3.1-0.7,6.2-1.4,9.3-2c6.5-1.3,13.1-2.3,19.8-3c3.5-0.4,6.9-0.7,10.4-0.9c5-0.3,10-0.5,15.1-0.5 c5.1,0,10.1,0.2,15.1,0.5c3.5,0.2,7,0.5,10.4,0.9c6.7,0.7,13.3,1.7,19.8,3c3.1,0.6,6.2,1.3,9.3,2c6,1.5,11.9,3.1,17.8,5.1 c2.8,0.9,5.6,1.9,8.4,2.9c5.5,2,10.9,4.3,16.1,6.7c2.6,1.2,5.1,2.4,7.6,3.7c5,2.5,9.9,5.2,14.7,8.1c2.3,1.4,4.7,2.9,7,4.4 c4.6,3,9.1,6.1,13.4,9.4c2.1,1.6,4.3,3.3,6.3,5c4.2,3.4,8.3,6.9,12.2,10.6c2,1.8,3.9,3.7,5.8,5.6c4.2,4.2,8.2,8.5,12.1,13.1 c1.8,2,3.5,4.1,5.1,6.2c3.4,4.2,6.6,8.6,9.7,13.1c1.5,2.2,3,4.5,4.5,6.8c3,4.7,5.8,9.5,8.5,14.3c1.3,2.5,2.6,4.9,3.9,7.5 c2.5,5.1,4.9,10.4,7.1,15.7c1.1,2.7,2.2,5.4,3.2,8.2c2,5.7,3.9,11.5,5.5,17.3c0.8,3,1.6,6,2.3,9c1.5,6.3,2.7,12.7,3.6,19.2 c0.5,3.3,0.9,6.7,1.2,10.1c0.7,7.1,1.1,14.4,1.2,21.7C695.2,230.6,695.2,231.2,695.2,231.7z"/></g><g><g><g><g><g id="change2_18"><path fill="#de3893" d="M883.9,395.6c-1.9,1.9-3.8,3.7-5.8,5.6L720.1,243L562,401.1c-2-1.8-3.9-3.7-5.8-5.6l163.9-163.8 L883.9,395.6z"/></g><g id="change2_20"><path fill="#de3893" d="M866,411.8c-2.1,1.7-4.2,3.3-6.3,5L720.1,277.2L580.5,416.7c-2.1-1.6-4.3-3.3-6.3-5l145.9-145.9L866,411.8 z"/></g><g id="change2_7"><path fill="#de3893" d="M846.2,426.1c-2.3,1.5-4.6,3-7,4.4L720.1,311.3L600.9,430.5c-2.3-1.4-4.7-2.9-7-4.4L720.1,300L846.2,426.1 z"/></g><g id="change2_28"><path fill="#de3893" d="M824.5,438.6c-2.5,1.3-5.1,2.5-7.6,3.7l-96.8-96.8l-96.8,96.8c-2.6-1.2-5.1-2.4-7.6-3.7l104.5-104.5 L824.5,438.6z"/></g><g id="change2_8"><path fill="#de3893" d="M800.8,449c-2.8,1-5.5,2-8.4,2.9l-72.3-72.3l-72.3,72.3c-2.8-0.9-5.6-1.9-8.4-2.9l80.7-80.7L800.8,449z"/></g><g id="change2_1"><path fill="#de3893" d="M774.6,457c-3.1,0.7-6.2,1.4-9.3,2l-45.3-45.3L674.8,459c-3.1-0.6-6.2-1.3-9.3-2l54.5-54.5L774.6,457z"/></g><g id="change2_19"><path fill="#de3893" d="M745.6,462.1c-3.4,0.4-6.9,0.7-10.4,0.9l-15.1-15.1L705,463c-3.5-0.2-7-0.5-10.4-0.9l25.5-25.5 L745.6,462.1z"/></g></g><g><g id="change2_15"><path fill="#de3893" d="M883.9,67.9L720.1,231.7L556.2,67.9c1.9-1.9,3.8-3.7,5.8-5.6l158.1,158.1L878.2,62.3 C880.1,64.1,882,66,883.9,67.9z"/></g><g id="change2_26"><path fill="#de3893" d="M866,51.7L720.1,197.6L574.2,51.7c2.1-1.7,4.2-3.4,6.3-5l139.5,139.5L859.6,46.7 C861.8,48.3,863.9,50,866,51.7z"/></g><g id="change2_27"><path fill="#de3893" d="M846.2,37.3L720.1,163.4L593.9,37.3c2.3-1.5,4.6-3,7-4.4l119.2,119.2L839.2,33 C841.6,34.4,843.9,35.8,846.2,37.3z"/></g><g id="change2_13"><path fill="#de3893" d="M824.5,24.8L720.1,129.3L615.6,24.8c2.5-1.3,5.1-2.5,7.6-3.7l96.8,96.8l96.8-96.8 C819.5,22.3,822,23.6,824.5,24.8z"/></g><g id="change2_4"><path fill="#de3893" d="M800.8,14.4l-80.7,80.7l-80.7-80.7c2.8-1,5.6-2,8.4-2.9l72.3,72.3l72.3-72.3 C795.2,12.4,798,13.4,800.8,14.4z"/></g><g id="change2_21"><path fill="#de3893" d="M774.6,6.5L720.1,61L665.5,6.5c3.1-0.7,6.2-1.4,9.3-2l45.3,45.3l45.3-45.3C768.5,5,771.6,5.7,774.6,6.5z"/></g><g id="change2_22"><path fill="#de3893" d="M745.6,1.4l-25.5,25.5L694.6,1.4C698,1,701.5,0.7,705,0.5l15.1,15.1l15.1-15.1 C738.6,0.7,742.1,1,745.6,1.4z"/></g></g></g><g id="change2_2"><path fill="#de3893" d="M695.9,231.7L544.6,383.1c-1.8-2-3.5-4.1-5.1-6.2l145.2-145.2L539.4,86.5c1.7-2.1,3.4-4.1,5.1-6.2 L695.9,231.7z"/></g><g id="change2_5"><path fill="#de3893" d="M661.8,231.7L529.7,363.8c-1.5-2.2-3.1-4.5-4.5-6.8l125.3-125.3L525.1,106.4c1.5-2.3,3-4.5,4.5-6.8 L661.8,231.7z"/></g><g id="change2_24"><path fill="#de3893" d="M627.7,231.7l-111,111c-1.3-2.5-2.6-4.9-3.9-7.4l103.6-103.6L512.7,128.1c1.3-2.5,2.5-5,3.9-7.4L627.7,231.7 z"/></g><g id="change2_11"><path fill="#de3893" d="M593.5,231.7l-87.9,87.9c-1.1-2.7-2.2-5.4-3.2-8.1l79.8-79.8L502.4,152c1-2.7,2.1-5.5,3.2-8.1L593.5,231.7z"/></g><g id="change2_17"><path fill="#de3893" d="M559.4,231.7l-62.5,62.5c-0.8-3-1.6-6-2.3-9l53.5-53.5l-53.5-53.5c0.7-3,1.5-6,2.3-9L559.4,231.7z"/></g><g id="change2_25"><path fill="#de3893" d="M525.2,231.7l-34.3,34.3c-0.5-3.3-0.9-6.7-1.3-10l24.3-24.3l-24.3-24.3c0.3-3.4,0.8-6.7,1.3-10L525.2,231.7z"/></g><g id="change2_23"><path fill="#de3893" d="M491.1,231.7l-2.7,2.7c0-0.9,0-1.8,0-2.7s0-1.8,0-2.7L491.1,231.7z"/></g><g id="change2_10"><path fill="#de3893" d="M756.5,231.7l144.6,144.6c-1.7,2.1-3.4,4.2-5.1,6.2L745.2,231.7L896,80.9c1.8,2,3.5,4.1,5.1,6.2L756.5,231.7 z"/></g><g id="change2_14"><path fill="#de3893" d="M790.7,231.7l124.7,124.7c-1.5,2.3-3,4.6-4.5,6.8L779.4,231.7l131.5-131.5c1.5,2.2,3,4.5,4.5,6.8 L790.7,231.7z"/></g><g id="change2_16"><path fill="#de3893" d="M824.8,231.7l102.9,102.9c-1.2,2.5-2.5,5-3.9,7.4L813.5,231.7l110.4-110.4c1.3,2.5,2.6,4.9,3.9,7.5 L824.8,231.7z"/></g><g id="change2_12"><path fill="#de3893" d="M858.9,231.7l79,79c-1,2.8-2,5.5-3.1,8.2l-87.2-87.2l87.2-87.2c1.1,2.7,2.2,5.4,3.2,8.2L858.9,231.7z"/></g><g id="change2_9"><path fill="#de3893" d="M893.1,231.7l52.7,52.7c-0.7,3-1.5,6-2.3,9l-61.7-61.7l61.7-61.7c0.8,3,1.6,6,2.3,9L893.1,231.7z"/></g><g id="change2_3"><path fill="#de3893" d="M927.2,231.7l23.4,23.4c-0.3,3.4-0.8,6.7-1.2,10.1l-33.5-33.5l33.5-33.5c0.5,3.3,0.9,6.7,1.2,10.1 L927.2,231.7z"/></g><g id="change2_6"><path fill="#de3893" d="M951.8,231.7c0,0.6,0,1.2,0,1.7l-1.7-1.7l1.7-1.7C951.8,230.6,951.8,231.2,951.8,231.7z"/></g></g></g><g><g><g><g><g id="change3_10"><path fill="#893491" d="M395.6,395.6c-1.9,1.9-3.8,3.7-5.8,5.6L231.7,243L73.6,401.1c-2-1.8-3.9-3.7-5.8-5.6l163.9-163.8 L395.6,395.6z"/></g><g id="change3_12"><path fill="#893491" d="M377.6,411.8c-2.1,1.7-4.2,3.3-6.3,5L231.7,277.2L92.2,416.7c-2.1-1.6-4.3-3.3-6.3-5l145.9-145.9 L377.6,411.8z"/></g><g id="change3_2"><path fill="#893491" d="M357.9,426.1c-2.3,1.5-4.6,3-7,4.4L231.7,311.3L112.6,430.5c-2.3-1.4-4.7-2.9-7-4.4L231.7,300L357.9,426.1 z"/></g><g id="change3_16"><path fill="#893491" d="M336.2,438.6c-2.5,1.3-5.1,2.5-7.6,3.7l-96.8-96.8l-96.8,96.8c-2.6-1.2-5.1-2.4-7.6-3.7l104.5-104.5 L336.2,438.6z"/></g><g id="change3_21"><path fill="#893491" d="M312.4,449c-2.8,1-5.5,2-8.4,2.9l-72.3-72.3l-72.3,72.3c-2.8-0.9-5.6-1.9-8.4-2.9l80.7-80.7L312.4,449z"/></g><g id="change3_17"><path fill="#893491" d="M286.3,457c-3.1,0.7-6.2,1.4-9.3,2l-45.3-45.3L186.5,459c-3.1-0.6-6.2-1.3-9.3-2l54.5-54.5L286.3,457z"/></g><g id="change3_1"><path fill="#893491" d="M257.2,462.1c-3.4,0.4-6.9,0.7-10.4,0.9l-15.1-15.1L216.7,463c-3.5-0.2-7-0.5-10.4-0.9l25.5-25.5 L257.2,462.1z"/></g></g><g><g id="change3_8"><path fill="#893491" d="M395.6,67.9L231.7,231.7L67.9,67.9c1.9-1.9,3.8-3.7,5.8-5.6l158.1,158.1L389.8,62.3 C391.8,64.1,393.7,66,395.6,67.9z"/></g><g id="change3_11"><path fill="#893491" d="M377.6,51.7L231.7,197.6L85.8,51.7c2.1-1.7,4.2-3.4,6.3-5l139.5,139.5L371.3,46.7 C373.4,48.3,375.5,50,377.6,51.7z"/></g><g id="change3_27"><path fill="#893491" d="M357.9,37.3L231.7,163.4L105.6,37.3c2.3-1.5,4.6-3,7-4.4l119.2,119.2L350.9,33 C353.3,34.4,355.6,35.8,357.9,37.3z"/></g><g id="change3_6"><path fill="#893491" d="M336.2,24.8L231.7,129.3L127.3,24.8c2.5-1.3,5.1-2.5,7.6-3.7l96.8,96.8l96.8-96.8 C331.1,22.3,333.7,23.6,336.2,24.8z"/></g><g id="change3_15"><path fill="#893491" d="M312.4,14.4l-80.7,80.7L151,14.4c2.8-1,5.6-2,8.4-2.9l72.3,72.3l72.3-72.3 C306.9,12.4,309.7,13.4,312.4,14.4z"/></g><g id="change3_20"><path fill="#893491" d="M286.3,6.5L231.7,61L177.2,6.5c3.1-0.7,6.2-1.4,9.3-2l45.3,45.3L277,4.4C280.1,5,283.2,5.7,286.3,6.5z"/></g><g id="change3_26"><path fill="#893491" d="M257.2,1.4l-25.5,25.5L206.2,1.4c3.5-0.4,6.9-0.7,10.4-0.9l15.1,15.1l15.1-15.1 C250.3,0.7,253.8,1,257.2,1.4z"/></g></g></g><g id="change3_23"><path fill="#893491" d="M207.6,231.7L56.3,383.1c-1.8-2-3.5-4.1-5.1-6.2l145.2-145.2L51.1,86.5c1.7-2.1,3.4-4.1,5.1-6.2L207.6,231.7 z"/></g><g id="change3_9"><path fill="#893491" d="M173.5,231.7L41.3,363.8c-1.5-2.2-3.1-4.5-4.5-6.8l125.3-125.3L36.8,106.4c1.5-2.3,3-4.5,4.5-6.8 L173.5,231.7z"/></g><g id="change3_4"><path fill="#893491" d="M139.3,231.7l-111,111c-1.3-2.5-2.6-4.9-3.9-7.4L128,231.7L24.4,128.1c1.3-2.5,2.5-5,3.9-7.4L139.3,231.7z"/></g><g id="change3_3"><path fill="#893491" d="M105.2,231.7l-87.9,87.9c-1.1-2.7-2.2-5.4-3.2-8.1l79.8-79.8L14.1,152c1-2.7,2.1-5.5,3.2-8.1L105.2,231.7z"/></g><g id="change3_19"><path fill="#893491" d="M71,231.7L8.5,294.2c-0.8-3-1.6-6-2.3-9l53.5-53.5L6.2,178.2c0.7-3,1.5-6,2.3-9L71,231.7z"/></g><g id="change3_18"><path fill="#893491" d="M36.9,231.7L2.5,266.1c-0.5-3.3-0.9-6.7-1.3-10l24.3-24.3L1.3,207.4c0.3-3.4,0.8-6.7,1.3-10L36.9,231.7z"/></g><g id="change3_28"><path fill="#893491" d="M2.7,231.7L0,234.4c0-0.9,0-1.8,0-2.7s0-1.8,0-2.7L2.7,231.7z"/></g><g id="change3_13"><path fill="#893491" d="M268.2,231.7l144.6,144.6c-1.7,2.1-3.4,4.2-5.1,6.2L256.9,231.7L407.7,80.9c1.8,2,3.5,4.1,5.1,6.2 L268.2,231.7z"/></g><g id="change3_14"><path fill="#893491" d="M302.3,231.7L427,356.5c-1.5,2.3-3,4.6-4.5,6.8L291,231.7l131.5-131.5c1.5,2.2,3,4.5,4.5,6.8L302.3,231.7z"/></g><g id="change3_7"><path fill="#893491" d="M336.5,231.7l102.9,102.9c-1.2,2.5-2.5,5-3.9,7.4L325.2,231.7l110.4-110.4c1.3,2.5,2.6,4.9,3.9,7.5 L336.5,231.7z"/></g><g id="change3_5"><path fill="#893491" d="M370.6,231.7l79,79c-1,2.8-2,5.5-3.1,8.2l-87.2-87.2l87.2-87.2c1.1,2.7,2.2,5.4,3.2,8.2L370.6,231.7z"/></g><g id="change3_24"><path fill="#893491" d="M404.8,231.7l52.7,52.7c-0.7,3-1.5,6-2.3,9l-61.7-61.7l61.7-61.7c0.8,3,1.6,6,2.3,9L404.8,231.7z"/></g><g id="change3_25"><path fill="#893491" d="M438.9,231.7l23.4,23.4c-0.3,3.4-0.8,6.7-1.2,10.1l-33.5-33.5l33.5-33.5c0.5,3.3,0.9,6.7,1.2,10.1 L438.9,231.7z"/></g><g id="change3_22"><path fill="#893491" d="M463.5,231.7c0,0.6,0,1.2,0,1.7l-1.7-1.7l1.7-1.7C463.5,230.6,463.5,231.2,463.5,231.7z"/></g></g></g></svg>